<?xml version="1.0" encoding="utf-8"?>
<!-- Generator: Adobe Illustrator 27.2.0, SVG Export Plug-In . SVG Version: 6.00 Build 0)  -->
<svg version="1.1" id="Layer_1" xmlns="http://www.w3.org/2000/svg" xmlns:xlink="http://www.w3.org/1999/xlink" x="0px" y="0px"
	 viewBox="0 0 545.3 165.4" style="enable-background:new 0 0 545.3 165.4;" xml:space="preserve">
<style type="text/css">
	.st0{fill:none;stroke:#000000;stroke-width:9;stroke-miterlimit:10;}
	.st1{filter:url(#AI_Shadow_2);}
	.st2{fill:#FFFFFF;stroke:#FFFFFF;stroke-width:3;stroke-miterlimit:10;}
	.st3{fill:#FFFFFF;}
	.st4{font-family:'CenturyGothic';}
	.st5{font-size:65px;}
	.st6{fill:#F15A29;}
</style>
<filter  filterUnits="objectBoundingBox" height="130%" id="AI_Shadow_2" width="140%" x="-15%" y="-15%">
	<feGaussianBlur  in="SourceAlpha" result="blur" stdDeviation="6"></feGaussianBlur>
	<feOffset  dx="8" dy="8" in="blur" result="offsetBlurredAlpha"></feOffset>
	<feMerge>
		<feMergeNode  in="offsetBlurredAlpha"></feMergeNode>
		<feMergeNode  in="SourceGraphic"></feMergeNode>
	</feMerge>
</filter>
<path class="st0" d="M365.5,117.1"/>
<g id="XMLID_00000164496980068887648240000001442730606012115110_" class="st1">
	<g>
		<g>
			<path class="st2" d="M67.7,107.1H18.5c-0.5,0-1.3-0.2-1.9-0.5c-0.3-0.2-0.6-0.3-0.8-0.5c-0.2-0.2-0.4-0.4-0.5-0.5
				c-0.1-0.2-0.3-0.5-0.4-0.9c-0.2-0.5-0.4-1.2-0.6-1.8c-0.1-0.6-0.2-1.3-0.2-1.8V25.6c0-0.6,0.2-1.5,0.5-2.3c0.3-0.8,0.8-1.6,1.1-2
				l0.3-0.3c0.3-0.4,1-0.9,1.8-1.2c0.4-0.2,0.8-0.3,1.1-0.4c0.4-0.1,0.7-0.1,1-0.1h100.7c0.3,0,0.6,0,1,0.1c0.6,0.1,1.2,0.4,1.8,0.7
				c0.6,0.3,1.1,0.6,1.3,0.9l3.9,3.9c0.4,0.4,0.9,1.1,1.2,1.9c0.2,0.4,0.3,0.8,0.4,1.2c0.1,0.4,0.1,0.7,0.1,1c0,0,0,17.3,0,24h3.3
				c0-3.4,0-9.4,0-14.6c0-2.6,0-5,0-6.7c0-1.7,0-2.8,0-2.8c0-1.2-0.3-2.3-0.8-3.5c-0.5-1.1-1.1-2.2-1.9-3l-3.9-3.9
				c-0.8-0.8-1.9-1.4-3-1.9c-1.1-0.5-2.3-0.8-3.5-0.8H19.8c-1.2,0-2.4,0.3-3.5,0.8c-1.1,0.5-2.1,1.2-2.9,2l-0.3,0.3
				c-0.8,0.9-1.3,1.9-1.8,3c-0.4,1.1-0.7,2.3-0.7,3.4v75.5c0,1.1,0.2,2.2,0.5,3.3c0.2,0.5,0.3,1.1,0.5,1.6c0.2,0.5,0.4,1,0.7,1.4
				c0.3,0.5,0.7,0.9,1.2,1.2c0.7,0.5,1.4,1,2.2,1.3c0.8,0.3,1.7,0.5,2.6,0.5h49.2V107.1L67.7,107.1z"/>
			<path class="st2" d="M27.4,95.5v1.6c1.3,0,2.5-0.5,3.3-1.4c0.9-0.9,1.4-2,1.4-3.3v-59c0-1.3-0.5-2.5-1.4-3.3
				c-0.9-0.9-2-1.4-3.3-1.4h-12c-1.3,0-2.5,0.5-3.3,1.4c-0.9,0.9-1.4,2-1.4,3.3v59c0,1.3,0.5,2.5,1.4,3.3c0.9,0.9,2,1.4,3.3,1.4h12
				V95.5v-1.6h-12c-0.4,0-0.8-0.2-1-0.4c-0.3-0.3-0.4-0.6-0.4-1v-59c0-0.4,0.2-0.8,0.4-1c0.3-0.3,0.6-0.4,1-0.4h12
				c0.4,0,0.8,0.2,1,0.4c0.3,0.3,0.4,0.6,0.4,1v59c0,0.4-0.2,0.8-0.4,1c-0.3,0.3-0.6,0.4-1,0.4V95.5z"/>
			<path class="st2" d="M53.2,43.3v-9.9c0-0.4,0.2-0.8,0.4-1c0.3-0.3,0.6-0.4,1-0.4h50.1c0.4,0,0.8,0.2,1,0.4c0.3,0.3,0.4,0.6,0.4,1
				V42h3.3l0-8.6c0-1.3-0.5-2.5-1.4-3.3c-0.9-0.9-2-1.4-3.3-1.4H54.6c-1.3,0-2.5,0.5-3.3,1.4c-0.9,0.9-1.4,2-1.4,3.3v9.9H53.2
				L53.2,43.3z"/>
			<path class="st2" d="M66.4,92.6v38.6c0,1.5,0.4,3.2,0.9,4.9c0.6,1.6,1.3,3.2,2.2,4.4l1.4,1.8c0.9,1.2,2.2,2.3,3.5,3.3
				c1.3,1,2.7,1.8,4.1,2.3c1.2,0.4,2.8,0.8,4.5,1.1c1.6,0.3,3.3,0.4,4.7,0.4h73.9c1.4,0,2.9-0.2,4.2-0.5c0.7-0.1,1.3-0.3,1.9-0.5
				c0.6-0.2,1.1-0.4,1.5-0.8c0.6-0.4,0.9-0.9,1.3-1.4c0.5-0.8,0.8-1.7,1.1-2.8c0.3-1,0.4-2.1,0.4-3.2V72.3c0-1.4-0.2-2.8-0.5-4.1
				c-0.2-0.6-0.3-1.2-0.6-1.7c-0.1-0.3-0.2-0.5-0.4-0.7c-0.2-0.2-0.3-0.5-0.6-0.7c-0.5-0.4-0.9-0.6-1.5-0.9
				c-0.8-0.3-1.7-0.5-2.7-0.7c-1-0.2-2.1-0.3-3.1-0.3H80.3c-1,0-2.4-0.3-3.7-0.8c-1.3-0.5-2.6-1.2-3.3-1.8c-0.9-0.8-1.8-1.5-2.4-2.1
				c-0.6-0.5-1-0.9-1-0.9l-2.1,2.5c0,0,1.5,1.3,3.4,2.9c1.2,1,2.7,1.8,4.3,2.4c1.6,0.6,3.3,1,4.8,1h82.5c1.1,0,2.4,0.1,3.4,0.4
				c0.5,0.1,0.9,0.2,1.2,0.4c0.2,0.1,0.3,0.1,0.4,0.2l0.1,0.1l0,0l0.1-0.1l-0.1,0.1l0,0l0.1-0.1l-0.1,0.1l0.2-0.2l-0.2,0.2l0,0
				l0.2-0.2l-0.2,0.2l0,0c0,0,0.2,0.2,0.3,0.6c0.2,0.5,0.4,1.1,0.5,1.9c0.1,0.8,0.2,1.6,0.2,2.4v68.1c0,1.1-0.2,2.3-0.5,3.2
				c-0.2,0.5-0.3,0.9-0.5,1.1c-0.2,0.3-0.3,0.4-0.3,0.4c-0.1,0.1-0.4,0.2-0.8,0.4c-0.6,0.2-1.4,0.4-2.3,0.6
				c-0.9,0.1-1.8,0.2-2.7,0.2H87.7c-1.1,0-2.7-0.1-4.2-0.4c-1.5-0.2-3-0.6-3.9-0.9c-0.9-0.3-2.1-1-3.2-1.9c-1.1-0.9-2.2-1.9-2.8-2.7
				l-1.4-1.8c-0.6-0.8-1.3-2.1-1.7-3.5c-0.5-1.4-0.7-2.8-0.7-3.8V92.6H66.4L66.4,92.6z"/>
			<path class="st2" d="M67.8,78.2l23.5,4.3c0.4,0.1,0.9,0.3,1.2,0.7c0.3,0.4,0.5,0.9,0.5,1.3v49.9c0,0.4-0.1,0.5-0.2,0.7
				c-0.1,0.1-0.3,0.2-0.5,0.2c-0.1,0-0.2,0-0.3,0l-23.5-5.1l-0.7,3.2l23.5,5.1c0.3,0.1,0.6,0.1,1,0.1c1.1,0,2.1-0.4,2.9-1.2
				c0.7-0.8,1.2-1.8,1.2-3V84.5c0-1.3-0.5-2.5-1.3-3.4c-0.8-0.9-1.8-1.6-3.1-1.9L68.4,75L67.8,78.2L67.8,78.2z"/>
			<path class="st2" d="M137.4,108.7v25.7c0,0.4-0.2,0.8-0.4,1c-0.3,0.3-0.6,0.4-1,0.4h-23.4c-0.4,0-0.8-0.2-1-0.4
				c-0.3-0.3-0.4-0.6-0.4-1V86c0-0.4,0.2-0.8,0.4-1c0.3-0.3,0.6-0.4,1-0.4h23.4c0.4,0,0.8,0.2,1,0.4c0.3,0.3,0.4,0.6,0.4,1v11.2h3.3
				l0-11.2c0-1.3-0.5-2.5-1.4-3.3c-0.9-0.9-2-1.4-3.3-1.4h-23.4c-1.3,0-2.5,0.5-3.3,1.4c-0.9,0.9-1.4,2-1.4,3.3v48.4
				c0,1.3,0.5,2.5,1.4,3.3c0.9,0.9,2,1.4,3.3,1.4h23.4c1.3,0,2.5-0.5,3.3-1.4c0.9-0.9,1.4-2,1.4-3.3v-25.7H137.4L137.4,108.7z"/>
			<path class="st2" d="M171,81.3h-13.6c-1.3,0-2.5,0.5-3.3,1.4c-0.8,0.8-1.4,2-1.4,3.3l0,0.1l0,0l0.5,48.4c0,1.3,0.6,2.5,1.4,3.3
				c0.9,0.8,2,1.4,3.3,1.4h13.8v-3.3l-13.8,0c-0.4,0-0.8-0.2-1-0.4c-0.3-0.3-0.4-0.6-0.4-1L155.9,86l0,0l0,0c0-0.4,0.2-0.7,0.4-1
				c0.3-0.3,0.6-0.4,1-0.4H171V81.3L171,81.3z"/>
			<path class="st2" d="M49.9,55v37.4c0,1.3,0.5,2.5,1.4,3.3c0.9,0.9,2,1.4,3.3,1.4H65c1.3,0,2.5-0.5,3.3-1.4c0.9-0.9,1.4-2,1.4-3.3
				V54.2c0-0.6,0.2-1.6,0.4-2.5c0.3-0.9,0.6-1.8,1-2.3l2.2-3.5c0.1-0.2,0.3-0.4,0.6-0.7c0.4-0.3,0.9-0.7,1.4-0.9
				c0.5-0.2,1-0.3,1.4-0.3h42.9c1.1,0,2.2-0.2,3.4-0.5c1.2-0.3,2.3-0.8,3.2-1.3l6.6-4l-1.7-2.8l-6.6,4c-0.5,0.3-1.4,0.7-2.4,1
				c-0.9,0.3-1.9,0.4-2.5,0.4H76.7c-1.2,0-2.4,0.4-3.5,1c-0.5,0.3-1,0.6-1.5,1c-0.5,0.4-0.9,0.8-1.2,1.4l-2.2,3.5
				c-0.6,0.9-1,2-1.4,3.2c-0.3,1.2-0.6,2.3-0.6,3.4v38.2c0,0.4-0.2,0.8-0.4,1c-0.3,0.3-0.6,0.4-1,0.4H54.6c-0.4,0-0.8-0.2-1-0.4
				c-0.3-0.3-0.4-0.6-0.4-1V55H49.9L49.9,55z"/>
		</g>
		<text transform="matrix(1 0 0 1 190.6173 103.6563)"><tspan x="0" y="0" class="st3 st4 st5">CINE</tspan><tspan x="150.5" y="0" class="st6 st4 st5">VERSE</tspan></text>
	</g>
</g>
</svg>
